<?xml version="1.0" encoding="UTF-8" standalone="no"?>
<!DOCTYPE svg PUBLIC "-//W3C//DTD SVG 1.0//EN" "http://www.w3.org/TR/2001/PR-SVG-20010719/DTD/svg10.dtd">
<svg width="52cm" height="16cm" viewBox="259 310 1032 308" xmlns="http://www.w3.org/2000/svg" xmlns:xlink="http://www.w3.org/1999/xlink">
  <g>
    <rect style="fill: #ffff00" x="398" y="463" width="89.6" height="36"/>
    <rect style="fill: none; fill-opacity:0; stroke-width: 2; stroke: #000000" x="398" y="463" width="89.6" height="36"/>
    <text font-size="12.8" style="fill: #000000;text-anchor:middle;font-family:monospace;font-style:normal;font-weight:normal" x="442.8" y="484.2">Casillas</text>
  </g>
  <g>
    <rect style="fill: #add8e6" x="705" y="465" width="97.3" height="36"/>
    <rect style="fill: none; fill-opacity:0; stroke-width: 2; stroke: #000000" x="705" y="465" width="97.3" height="36"/>
    <text font-size="12.8" style="fill: #000000;text-anchor:middle;font-family:monospace;font-style:normal;font-weight:normal" x="753.65" y="486.2">Jugadores</text>
  </g>
  <g>
    <rect style="fill: #ff004a" x="1038" y="464" width="81.9" height="36"/>
    <rect style="fill: none; fill-opacity:0; stroke-width: 2; stroke: #000000" x="1038" y="464" width="81.9" height="36"/>
    <text font-size="12.8" style="fill: #000000;text-anchor:middle;font-family:monospace;font-style:normal;font-weight:normal" x="1078.95" y="485.2">Ranking</text>
  </g>
  <g>
    <polygon style="fill: #ffffff" points="569,481.86 612.1,456 655.2,481.86 612.1,507.72 "/>
    <polygon style="fill: none; fill-opacity:0; stroke-width: 2; stroke: #000000" points="569,481.86 612.1,456 655.2,481.86 612.1,507.72 "/>
    <text font-size="12.8" style="fill: #000000;text-anchor:end;font-family:monospace;font-style:normal;font-weight:normal" x="563" y="475.86">1:1</text>
    <text font-size="12.8" style="fill: #000000;text-anchor:start;font-family:monospace;font-style:normal;font-weight:normal" x="661.2" y="475.86">1:N</text>
    <text font-size="12.8" style="fill: #000000;text-anchor:middle;font-family:monospace;font-style:normal;font-weight:normal" x="612.1" y="485.06">Situan</text>
  </g>
  <g>
    <polygon style="fill: #ffffff" points="881,480.86 924.1,455 967.2,480.86 924.1,506.72 "/>
    <polygon style="fill: none; fill-opacity:0; stroke-width: 2; stroke: #000000" points="881,480.86 924.1,455 967.2,480.86 924.1,506.72 "/>
    <text font-size="12.8" style="fill: #000000;text-anchor:end;font-family:monospace;font-style:normal;font-weight:normal" x="875" y="474.86">1:N</text>
    <text font-size="12.8" style="fill: #000000;text-anchor:start;font-family:monospace;font-style:normal;font-weight:normal" x="973.2" y="474.86">1:M</text>
    <text font-size="12.8" style="fill: #000000;text-anchor:middle;font-family:monospace;font-style:normal;font-weight:normal" x="924.1" y="484.06">Forman</text>
  </g>
  <line style="fill: none; fill-opacity:0; stroke-width: 2; stroke: #000000" x1="487.6" y1="481" x2="569" y2="481.86"/>
  <line style="fill: none; fill-opacity:0; stroke-width: 2; stroke: #000000" x1="705" y1="483" x2="655.2" y2="481.86"/>
  <line style="fill: none; fill-opacity:0; stroke-width: 2; stroke: #000000" x1="803.287" y1="482.166" x2="881" y2="480.86"/>
  <line style="fill: none; fill-opacity:0; stroke-width: 2; stroke: #000000" x1="968.175" y1="481.301" x2="1038" y2="482"/>
  <g>
    <ellipse style="fill: #ffff00" cx="315.65" cy="557" rx="54.65" ry="18"/>
    <ellipse style="fill: none; fill-opacity:0; stroke-width: 2; stroke: #000000" cx="315.65" cy="557" rx="54.65" ry="18"/>
    <text font-size="12.8" style="fill: #000000;text-anchor:middle;font-family:monospace;font-style:normal;font-weight:normal" x="315.65" y="560.2">idCasilla</text>
    <line style="fill: none; fill-opacity:0; stroke-width: 2; stroke: #000000" x1="281" y1="565" x2="350.3" y2="565"/>
  </g>
  <g>
    <ellipse style="fill: #ffff00" cx="502.35" cy="598" rx="62.35" ry="18"/>
    <ellipse style="fill: none; fill-opacity:0; stroke-width: 2; stroke: #000000" cx="502.35" cy="598" rx="62.35" ry="18"/>
    <text font-size="12.8" style="fill: #000000;text-anchor:middle;font-family:monospace;font-style:normal;font-weight:normal" x="502.35" y="601.2">tipoCasilla</text>
  </g>
  <g>
    <ellipse style="fill: #ffff00" cx="528.75" cy="366" rx="77.75" ry="18"/>
    <ellipse style="fill: none; fill-opacity:0; stroke-width: 2; stroke: #000000" cx="528.75" cy="366" rx="77.75" ry="18"/>
    <text font-size="12.8" style="fill: #000000;text-anchor:middle;font-family:monospace;font-style:normal;font-weight:normal" x="528.75" y="369.2">posicionCasilla</text>
  </g>
  <g>
    <ellipse style="fill: #ffff00" cx="342.05" cy="329" rx="70.05" ry="18"/>
    <ellipse style="fill: none; fill-opacity:0; stroke-width: 2; stroke: #000000" cx="342.05" cy="329" rx="70.05" ry="18"/>
    <text font-size="12.8" style="fill: #000000;text-anchor:middle;font-family:monospace;font-style:normal;font-weight:normal" x="342.05" y="332.2">nombreCasilla</text>
  </g>
  <g>
    <ellipse style="fill: #add8e6" cx="679.65" cy="343" rx="54.65" ry="18"/>
    <ellipse style="fill: none; fill-opacity:0; stroke-width: 2; stroke: #000000" cx="679.65" cy="343" rx="54.65" ry="18"/>
    <text font-size="12.8" style="fill: #000000;text-anchor:middle;font-family:monospace;font-style:normal;font-weight:normal" x="679.65" y="346.2">idJugador</text>
    <line style="fill: none; fill-opacity:0; stroke-width: 2; stroke: #000000" x1="645" y1="351" x2="714.3" y2="351"/>
  </g>
  <g>
    <ellipse style="fill: #add8e6" cx="867.05" cy="382" rx="70.05" ry="18"/>
    <ellipse style="fill: none; fill-opacity:0; stroke-width: 2; stroke: #000000" cx="867.05" cy="382" rx="70.05" ry="18"/>
    <text font-size="12.8" style="fill: #000000;text-anchor:middle;font-family:monospace;font-style:normal;font-weight:normal" x="867.05" y="385.2">nombreJugador</text>
  </g>
  <g>
    <ellipse style="fill: #add8e6" cx="774.05" cy="588" rx="70.05" ry="18"/>
    <ellipse style="fill: none; fill-opacity:0; stroke-width: 2; stroke: #000000" cx="774.05" cy="588" rx="70.05" ry="18"/>
    <text font-size="12.8" style="fill: #000000;text-anchor:middle;font-family:monospace;font-style:normal;font-weight:normal" x="774.05" y="591.2">dineroJugador</text>
  </g>
  <g>
    <ellipse style="fill: #ff004a" cx="1011.65" cy="352" rx="54.65" ry="18"/>
    <ellipse style="fill: none; fill-opacity:0; stroke-width: 2; stroke: #000000" cx="1011.65" cy="352" rx="54.65" ry="18"/>
    <text font-size="12.8" style="fill: #000000;text-anchor:middle;font-family:monospace;font-style:normal;font-weight:normal" x="1011.65" y="355.2">idRanking</text>
    <line style="fill: none; fill-opacity:0; stroke-width: 2; stroke: #000000" x1="977" y1="360" x2="1046.3" y2="360"/>
  </g>
  <g>
    <ellipse style="fill: #ff004a" cx="1201.3" cy="386" rx="89.3" ry="18"/>
    <ellipse style="fill: none; fill-opacity:0; stroke-width: 2; stroke: #000000" cx="1201.3" cy="386" rx="89.3" ry="18"/>
    <text font-size="12.8" style="fill: #000000;text-anchor:middle;font-family:monospace;font-style:normal;font-weight:normal" x="1201.3" y="389.2">dineroFinalRanking</text>
  </g>
  <g>
    <ellipse style="fill: #ff004a" cx="1034.55" cy="560" rx="108.55" ry="18"/>
    <ellipse style="fill: none; fill-opacity:0; stroke-width: 2; stroke: #000000" cx="1034.55" cy="560" rx="108.55" ry="18"/>
    <text font-size="12.8" style="fill: #000000;text-anchor:middle;font-family:monospace;font-style:normal;font-weight:normal" x="1034.55" y="563.2">propiedadesFinalRanking</text>
  </g>
  <line style="fill: none; fill-opacity:0; stroke-width: 2; stroke: #000000" x1="342.05" y1="347" x2="428.521" y2="462.009"/>
  <line style="fill: none; fill-opacity:0; stroke-width: 2; stroke: #000000" x1="514.895" y1="384.537" x2="456.996" y2="462.006"/>
  <line style="fill: none; fill-opacity:0; stroke-width: 2; stroke: #000000" x1="342.882" y1="540.723" x2="410.997" y2="500.009"/>
  <line style="fill: none; fill-opacity:0; stroke-width: 2; stroke: #000000" x1="492.835" y1="579.305" x2="452.472" y2="500.003"/>
  <line style="fill: none; fill-opacity:0; stroke-width: 2; stroke: #000000" x1="689.487" y1="361.611" x2="743.641" y2="464.064"/>
  <line style="fill: none; fill-opacity:0; stroke-width: 2; stroke: #000000" x1="846.888" y1="399.957" x2="774.982" y2="464.001"/>
  <line style="fill: none; fill-opacity:0; stroke-width: 2; stroke: #000000" x1="770.374" y1="569.082" x2="757.342" y2="502.002"/>
  <line style="fill: none; fill-opacity:0; stroke-width: 2; stroke: #000000" x1="1021.3" y1="370.638" x2="1069.12" y2="463.005"/>
  <line style="fill: none; fill-opacity:0; stroke-width: 2; stroke: #000000" x1="1178.29" y1="404.053" x2="1103.16" y2="463.004"/>
  <line style="fill: none; fill-opacity:0; stroke-width: 2; stroke: #000000" x1="1048.37" y1="541.331" x2="1078.95" y2="500"/>
</svg>
