<?xml version="1.0" encoding="UTF-8" standalone="no"?>
<!DOCTYPE svg PUBLIC "-//W3C//DTD SVG 1.0//EN" "http://www.w3.org/TR/2001/PR-SVG-20010719/DTD/svg10.dtd">
<svg width="53cm" height="10cm" viewBox="168 379 1058 198" xmlns="http://www.w3.org/2000/svg" xmlns:xlink="http://www.w3.org/1999/xlink">
  <g>
    <rect style="fill: #ffff00" x="335" y="464" width="89.6" height="36"/>
    <rect style="fill: none; fill-opacity:0; stroke-width: 2; stroke: #000000" x="335" y="464" width="89.6" height="36"/>
    <text font-size="12.8" style="fill: #000000;text-anchor:middle;font-family:monospace;font-style:normal;font-weight:normal" x="379.8" y="485.2">Casillas</text>
  </g>
  <g>
    <rect style="fill: #add8e6" x="640" y="464" width="97.3" height="36"/>
    <rect style="fill: none; fill-opacity:0; stroke-width: 2; stroke: #000000" x="640" y="464" width="97.3" height="36"/>
    <text font-size="12.8" style="fill: #000000;text-anchor:middle;font-family:monospace;font-style:normal;font-weight:normal" x="688.65" y="485.2">Jugadores</text>
  </g>
  <g>
    <rect style="fill: #90ee90" x="939" y="464" width="81.9" height="36"/>
    <rect style="fill: none; fill-opacity:0; stroke-width: 2; stroke: #000000" x="939" y="464" width="81.9" height="36"/>
    <text font-size="12.8" style="fill: #000000;text-anchor:middle;font-family:monospace;font-style:normal;font-weight:normal" x="979.95" y="485.2">Ranking</text>
  </g>
  <g>
    <polygon style="fill: #ffffff" points="490,481.86 533.1,456 576.2,481.86 533.1,507.72 "/>
    <polygon style="fill: none; fill-opacity:0; stroke-width: 2; stroke: #000000" points="490,481.86 533.1,456 576.2,481.86 533.1,507.72 "/>
    <text font-size="12.8" style="fill: #000000;text-anchor:end;font-family:monospace;font-style:normal;font-weight:normal" x="484" y="475.86">1:1</text>
    <text font-size="12.8" style="fill: #000000;text-anchor:start;font-family:monospace;font-style:normal;font-weight:normal" x="582.2" y="475.86">1:N</text>
    <text font-size="12.8" style="fill: #000000;text-anchor:middle;font-family:monospace;font-style:normal;font-weight:normal" x="533.1" y="485.06">Situan</text>
  </g>
  <g>
    <polygon style="fill: #ffffff" points="791,481.86 834.1,456 877.2,481.86 834.1,507.72 "/>
    <polygon style="fill: none; fill-opacity:0; stroke-width: 2; stroke: #000000" points="791,481.86 834.1,456 877.2,481.86 834.1,507.72 "/>
    <text font-size="12.8" style="fill: #000000;text-anchor:end;font-family:monospace;font-style:normal;font-weight:normal" x="785" y="475.86">1:N</text>
    <text font-size="12.8" style="fill: #000000;text-anchor:start;font-family:monospace;font-style:normal;font-weight:normal" x="883.2" y="475.86">1:M</text>
    <text font-size="12.8" style="fill: #000000;text-anchor:middle;font-family:monospace;font-style:normal;font-weight:normal" x="834.1" y="485.06">Forman</text>
  </g>
  <line style="fill: none; fill-opacity:0; stroke-width: 2; stroke: #000000" x1="424.6" y1="482" x2="490" y2="481.86"/>
  <line style="fill: none; fill-opacity:0; stroke-width: 2; stroke: #000000" x1="640" y1="482" x2="576.2" y2="481.86"/>
  <line style="fill: none; fill-opacity:0; stroke-width: 2; stroke: #000000" x1="738.288" y1="481.932" x2="791" y2="481.86"/>
  <line style="fill: none; fill-opacity:0; stroke-width: 2; stroke: #000000" x1="878.175" y1="481.919" x2="939" y2="482"/>
  <g>
    <ellipse style="fill: #ffff00" cx="231.65" cy="508" rx="54.65" ry="18"/>
    <ellipse style="fill: none; fill-opacity:0; stroke-width: 2; stroke: #000000" cx="231.65" cy="508" rx="54.65" ry="18"/>
    <text font-size="12.8" style="fill: #000000;text-anchor:middle;font-family:monospace;font-style:normal;font-weight:normal" x="231.65" y="511.2">idCasilla</text>
    <line style="fill: none; fill-opacity:0; stroke-width: 2; stroke: #000000" x1="197" y1="516" x2="266.3" y2="516"/>
  </g>
  <g>
    <ellipse style="fill: #ffff00" cx="430.35" cy="557" rx="62.35" ry="18"/>
    <ellipse style="fill: none; fill-opacity:0; stroke-width: 2; stroke: #000000" cx="430.35" cy="557" rx="62.35" ry="18"/>
    <text font-size="12.8" style="fill: #000000;text-anchor:middle;font-family:monospace;font-style:normal;font-weight:normal" x="430.35" y="560.2">tipoCasilla</text>
  </g>
  <g>
    <ellipse style="fill: #ffff00" cx="432.75" cy="398" rx="77.75" ry="18"/>
    <ellipse style="fill: none; fill-opacity:0; stroke-width: 2; stroke: #000000" cx="432.75" cy="398" rx="77.75" ry="18"/>
    <text font-size="12.8" style="fill: #000000;text-anchor:middle;font-family:monospace;font-style:normal;font-weight:normal" x="432.75" y="401.2">posicionCasilla</text>
  </g>
  <g>
    <ellipse style="fill: #ffff00" cx="240.05" cy="398" rx="70.05" ry="18"/>
    <ellipse style="fill: none; fill-opacity:0; stroke-width: 2; stroke: #000000" cx="240.05" cy="398" rx="70.05" ry="18"/>
    <text font-size="12.8" style="fill: #000000;text-anchor:middle;font-family:monospace;font-style:normal;font-weight:normal" x="240.05" y="401.2">nombreCasilla</text>
  </g>
  <g>
    <ellipse style="fill: #add8e6" cx="612.65" cy="405" rx="54.65" ry="18"/>
    <ellipse style="fill: none; fill-opacity:0; stroke-width: 2; stroke: #000000" cx="612.65" cy="405" rx="54.65" ry="18"/>
    <text font-size="12.8" style="fill: #000000;text-anchor:middle;font-family:monospace;font-style:normal;font-weight:normal" x="612.65" y="408.2">idJugador</text>
    <line style="fill: none; fill-opacity:0; stroke-width: 2; stroke: #000000" x1="578" y1="413" x2="647.3" y2="413"/>
  </g>
  <g>
    <ellipse style="fill: #add8e6" cx="760.05" cy="409" rx="70.05" ry="18"/>
    <ellipse style="fill: none; fill-opacity:0; stroke-width: 2; stroke: #000000" cx="760.05" cy="409" rx="70.05" ry="18"/>
    <text font-size="12.8" style="fill: #000000;text-anchor:middle;font-family:monospace;font-style:normal;font-weight:normal" x="760.05" y="412.2">nombreJugador</text>
  </g>
  <g>
    <ellipse style="fill: #add8e6" cx="626.05" cy="557" rx="70.05" ry="18"/>
    <ellipse style="fill: none; fill-opacity:0; stroke-width: 2; stroke: #000000" cx="626.05" cy="557" rx="70.05" ry="18"/>
    <text font-size="12.8" style="fill: #000000;text-anchor:middle;font-family:monospace;font-style:normal;font-weight:normal" x="626.05" y="560.2">dineroJugador</text>
  </g>
  <g>
    <ellipse style="fill: #90ee90" cx="939.65" cy="404" rx="54.65" ry="18"/>
    <ellipse style="fill: none; fill-opacity:0; stroke-width: 2; stroke: #000000" cx="939.65" cy="404" rx="54.65" ry="18"/>
    <text font-size="12.8" style="fill: #000000;text-anchor:middle;font-family:monospace;font-style:normal;font-weight:normal" x="939.65" y="407.2">idRanking</text>
    <line style="fill: none; fill-opacity:0; stroke-width: 2; stroke: #000000" x1="905" y1="412" x2="974.3" y2="412"/>
  </g>
  <g>
    <ellipse style="fill: #90ee90" cx="1136.3" cy="411" rx="89.3" ry="18"/>
    <ellipse style="fill: none; fill-opacity:0; stroke-width: 2; stroke: #000000" cx="1136.3" cy="411" rx="89.3" ry="18"/>
    <text font-size="12.8" style="fill: #000000;text-anchor:middle;font-family:monospace;font-style:normal;font-weight:normal" x="1136.3" y="414.2">dineroFinalRanking</text>
  </g>
  <g>
    <ellipse style="fill: #90ee90" cx="888.45" cy="555" rx="85.45" ry="18"/>
    <ellipse style="fill: none; fill-opacity:0; stroke-width: 2; stroke: #000000" cx="888.45" cy="555" rx="85.45" ry="18"/>
    <text font-size="12.8" style="fill: #000000;text-anchor:middle;font-family:monospace;font-style:normal;font-weight:normal" x="888.45" y="558.2">casasFinalRanking</text>
  </g>
  <line style="fill: none; fill-opacity:0; stroke-width: 2; stroke: #000000" x1="240.05" y1="416" x2="339.608" y2="463.019"/>
  <line style="fill: none; fill-opacity:0; stroke-width: 2; stroke: #000000" x1="420.999" y1="416.642" x2="391.777" y2="463"/>
  <line style="fill: none; fill-opacity:0; stroke-width: 2; stroke: #000000" x1="280.859" y1="499.364" x2="334" y2="490.038"/>
  <line style="fill: none; fill-opacity:0; stroke-width: 2; stroke: #000000" x1="417.879" y1="538.497" x2="392.598" y2="500.988"/>
  <line style="fill: none; fill-opacity:0; stroke-width: 2; stroke: #000000" x1="630.249" y1="422.831" x2="669.9" y2="463.004"/>
  <line style="fill: none; fill-opacity:0; stroke-width: 2; stroke: #000000" x1="742.305" y1="427.143" x2="707.241" y2="462.993"/>
  <line style="fill: none; fill-opacity:0; stroke-width: 2; stroke: #000000" x1="641.383" y1="538.63" x2="672.801" y2="500.988"/>
  <line style="fill: none; fill-opacity:0; stroke-width: 2; stroke: #000000" x1="949.277" y1="422.634" x2="970.141" y2="463.014"/>
  <line style="fill: none; fill-opacity:0; stroke-width: 2; stroke: #000000" x1="1099.18" y1="427.857" x2="1021.8" y2="462.993"/>
  <line style="fill: none; fill-opacity:0; stroke-width: 2; stroke: #000000" x1="917.491" y1="537.544" x2="979.95" y2="500"/>
  <g>
    <ellipse style="fill: #90ee90" cx="1119.05" cy="544.2" rx="93.15" ry="18"/>
    <ellipse style="fill: none; fill-opacity:0; stroke-width: 2; stroke: #000000" cx="1119.05" cy="544.2" rx="93.15" ry="18"/>
    <text font-size="12.8" style="fill: #000000;text-anchor:middle;font-family:monospace;font-style:normal;font-weight:normal" x="1119.05" y="547.4">hotelesFinalRanking</text>
  </g>
  <line style="fill: none; fill-opacity:0; stroke-width: 2; stroke: #000000" x1="1081.2" y1="527.276" x2="1021.9" y2="500.758"/>
</svg>
