<?xml version="1.0" encoding="UTF-8" standalone="no"?>
<!DOCTYPE svg PUBLIC "-//W3C//DTD SVG 1.0//EN" "http://www.w3.org/TR/2001/PR-SVG-20010719/DTD/svg10.dtd">
<svg width="62cm" height="59cm" viewBox="227 -54 1228 1175" xmlns="http://www.w3.org/2000/svg" xmlns:xlink="http://www.w3.org/1999/xlink">
  <g>
    <rect style="fill: #e2a7b1" x="977" y="357" width="81.9" height="36"/>
    <rect style="fill: none; fill-opacity:0; stroke-width: 2; stroke: #000000" x="977" y="357" width="81.9" height="36"/>
    <text font-size="12.7998" style="fill: #000000;text-anchor:middle;font-family:monospace;font-style:normal;font-weight:normal" x="1017.95" y="379">Partida</text>
  </g>
  <g>
    <rect style="fill: #90ee90" x="517" y="661" width="89.6" height="36"/>
    <rect style="fill: none; fill-opacity:0; stroke-width: 2; stroke: #000000" x="517" y="661" width="89.6" height="36"/>
    <text font-size="12.7998" style="fill: #000000;text-anchor:middle;font-family:monospace;font-style:normal;font-weight:normal" x="561.8" y="683">Casillas</text>
  </g>
  <g>
    <rect style="fill: #479aeb" x="523" y="59" width="74.2" height="36"/>
    <rect style="fill: none; fill-opacity:0; stroke-width: 2; stroke: #000000" x="523" y="59" width="74.2" height="36"/>
    <text font-size="12.7998" style="fill: #000000;text-anchor:middle;font-family:monospace;font-style:normal;font-weight:normal" x="560.1" y="81">Cartas</text>
  </g>
  <g>
    <rect style="fill: #c06c3c" x="978" y="59" width="81.9" height="36"/>
    <rect style="fill: none; fill-opacity:0; stroke-width: 2; stroke: #000000" x="978" y="59" width="81.9" height="36"/>
    <text font-size="12.7998" style="fill: #000000;text-anchor:middle;font-family:monospace;font-style:normal;font-weight:normal" x="1018.95" y="81">Ranking</text>
  </g>
  <g>
    <rect style="fill: #ffff00" x="970" y="659" width="97.3" height="36.002"/>
    <rect style="fill: none; fill-opacity:0; stroke-width: 2; stroke: #000000" x="970" y="659" width="97.3" height="36.002"/>
    <text font-size="12.8014" style="fill: #000000;text-anchor:middle;font-family:monospace;font-style:normal;font-weight:normal" x="1018.65" y="681.002">Jugadores</text>
  </g>
  <g>
    <rect style="fill: #e42424" x="941" y="992" width="158.9" height="36"/>
    <rect style="fill: none; fill-opacity:0; stroke-width: 2; stroke: #000000" x="941" y="992" width="158.9" height="36"/>
    <text font-size="12.7998" style="fill: #000000;text-anchor:middle;font-family:monospace;font-style:normal;font-weight:normal" x="1020.45" y="1014">EstadoPropiedades</text>
  </g>
  <g>
    <rect style="fill: #ffae00" x="516" y="356" width="89.6" height="36"/>
    <rect style="fill: none; fill-opacity:0; stroke-width: 2; stroke: #000000" x="516" y="356" width="89.6" height="36"/>
    <text font-size="12.7998" style="fill: #000000;text-anchor:middle;font-family:monospace;font-style:normal;font-weight:normal" x="560.8" y="378">Tableros</text>
  </g>
  <g>
    <polygon style="fill: #ffffff" points="510,557.48 560.8,527 611.6,557.48 560.8,587.96 "/>
    <polygon style="fill: none; fill-opacity:0; stroke-width: 2; stroke: #000000" points="510,557.48 560.8,527 611.6,557.48 560.8,587.96 "/>
    <text font-size="12.7998" style="fill: #000000;text-anchor:start;font-family:monospace;font-style:normal;font-weight:normal" x="564.8" y="521">1:1</text>
    <text font-size="12.7998" style="fill: #000000;text-anchor:start;font-family:monospace;font-style:normal;font-weight:normal" x="564.8" y="609.96">1:N</text>
    <text font-size="12.7998" style="fill: #000000;text-anchor:middle;font-family:monospace;font-style:normal;font-weight:normal" x="560.8" y="561.48">Relación</text>
  </g>
  <line style="fill: none; fill-opacity:0; stroke-width: 2; stroke: #000000" x1="560.8" y1="526.012" x2="560.8" y2="393.004"/>
  <line style="fill: none; fill-opacity:0; stroke-width: 2; stroke: #000000" x1="560.8" y1="587.96" x2="561.8" y2="661"/>
  <g>
    <polygon style="fill: #ffffff" points="510,206.48 560.8,176 611.6,206.48 560.8,236.96 "/>
    <polygon style="fill: none; fill-opacity:0; stroke-width: 2; stroke: #000000" points="510,206.48 560.8,176 611.6,206.48 560.8,236.96 "/>
    <text font-size="12.7998" style="fill: #000000;text-anchor:start;font-family:monospace;font-style:normal;font-weight:normal" x="564.8" y="170">1:N</text>
    <text font-size="12.7998" style="fill: #000000;text-anchor:start;font-family:monospace;font-style:normal;font-weight:normal" x="564.8" y="258.96">1:1</text>
    <text font-size="12.7998" style="fill: #000000;text-anchor:middle;font-family:monospace;font-style:normal;font-weight:normal" x="560.8" y="210.48">Relación</text>
  </g>
  <line style="fill: none; fill-opacity:0; stroke-width: 2; stroke: #000000" x1="560.8" y1="236.96" x2="560.8" y2="356"/>
  <line style="fill: none; fill-opacity:0; stroke-width: 2; stroke: #000000" x1="560.1" y1="95" x2="560.8" y2="176"/>
  <g>
    <polygon style="fill: #ffffff" points="735,374.48 785.8,344 836.6,374.48 785.8,404.96 "/>
    <polygon style="fill: none; fill-opacity:0; stroke-width: 2; stroke: #000000" points="735,374.48 785.8,344 836.6,374.48 785.8,404.96 "/>
    <text font-size="12.7998" style="fill: #000000;text-anchor:end;font-family:monospace;font-style:normal;font-weight:normal" x="729" y="368.48">1:1</text>
    <text font-size="12.7998" style="fill: #000000;text-anchor:start;font-family:monospace;font-style:normal;font-weight:normal" x="842.6" y="368.48">1:N</text>
    <text font-size="12.7998" style="fill: #000000;text-anchor:middle;font-family:monospace;font-style:normal;font-weight:normal" x="785.8" y="378.48">Relación</text>
  </g>
  <line style="fill: none; fill-opacity:0; stroke-width: 2; stroke: #000000" x1="976.011" y1="374.88" x2="836.6" y2="374.48"/>
  <line style="fill: none; fill-opacity:0; stroke-width: 2; stroke: #000000" x1="606.583" y1="374.126" x2="735" y2="374.48"/>
  <g>
    <polygon style="fill: #ffffff" points="1352,564.48 1402.8,534 1453.6,564.48 1402.8,594.96 "/>
    <polygon style="fill: none; fill-opacity:0; stroke-width: 2; stroke: #000000" points="1352,564.48 1402.8,534 1453.6,564.48 1402.8,594.96 "/>
    <text font-size="12.7998" style="fill: #000000;text-anchor:start;font-family:monospace;font-style:normal;font-weight:normal" x="1406.8" y="528">1:1</text>
    <text font-size="12.7998" style="fill: #000000;text-anchor:start;font-family:monospace;font-style:normal;font-weight:normal" x="1406.8" y="616.96">1:N</text>
    <text font-size="12.7998" style="fill: #000000;text-anchor:middle;font-family:monospace;font-style:normal;font-weight:normal" x="1402.8" y="568.48">Relación</text>
  </g>
  <g>
    <polygon style="fill: #ffffff" points="968,559.48 1018.8,529 1069.6,559.48 1018.8,589.96 "/>
    <polygon style="fill: none; fill-opacity:0; stroke-width: 2; stroke: #000000" points="968,559.48 1018.8,529 1069.6,559.48 1018.8,589.96 "/>
    <text font-size="12.7998" style="fill: #000000;text-anchor:start;font-family:monospace;font-style:normal;font-weight:normal" x="1022.8" y="523">1:1</text>
    <text font-size="12.7998" style="fill: #000000;text-anchor:start;font-family:monospace;font-style:normal;font-weight:normal" x="1022.8" y="611.96">1:N</text>
    <text font-size="12.7998" style="fill: #000000;text-anchor:middle;font-family:monospace;font-style:normal;font-weight:normal" x="1018.8" y="563.48">Relación</text>
  </g>
  <line style="fill: none; fill-opacity:0; stroke-width: 2; stroke: #000000" x1="1018.65" y1="659" x2="1018.8" y2="589.96"/>
  <line style="fill: none; fill-opacity:0; stroke-width: 2; stroke: #000000" x1="1018.8" y1="529" x2="1017.95" y2="393"/>
  <g>
    <polygon style="fill: #ffffff" points="737,678.48 787.8,648 838.6,678.48 787.8,708.96 "/>
    <polygon style="fill: none; fill-opacity:0; stroke-width: 2; stroke: #000000" points="737,678.48 787.8,648 838.6,678.48 787.8,708.96 "/>
    <text font-size="12.7998" style="fill: #000000;text-anchor:end;font-family:monospace;font-style:normal;font-weight:normal" x="731" y="672.48">1:1</text>
    <text font-size="12.7998" style="fill: #000000;text-anchor:start;font-family:monospace;font-style:normal;font-weight:normal" x="844.6" y="672.48">1:N</text>
    <text font-size="12.7998" style="fill: #000000;text-anchor:middle;font-family:monospace;font-style:normal;font-weight:normal" x="787.8" y="682.48">Relación</text>
  </g>
  <line style="fill: none; fill-opacity:0; stroke-width: 2; stroke: #000000" x1="606.6" y1="679" x2="737" y2="678.48"/>
  <line style="fill: none; fill-opacity:0; stroke-width: 2; stroke: #000000" x1="969.011" y1="677.409" x2="838.6" y2="678.48"/>
  <g>
    <polygon style="fill: #ffffff" points="968,855.48 1018.8,825 1069.6,855.48 1018.8,885.96 "/>
    <polygon style="fill: none; fill-opacity:0; stroke-width: 2; stroke: #000000" points="968,855.48 1018.8,825 1069.6,855.48 1018.8,885.96 "/>
    <text font-size="12.7998" style="fill: #000000;text-anchor:start;font-family:monospace;font-style:normal;font-weight:normal" x="1022.8" y="819">1:1</text>
    <text font-size="12.7998" style="fill: #000000;text-anchor:start;font-family:monospace;font-style:normal;font-weight:normal" x="1022.8" y="907.96">1:N</text>
    <text font-size="12.7998" style="fill: #000000;text-anchor:middle;font-family:monospace;font-style:normal;font-weight:normal" x="1018.8" y="859.48">Relación</text>
  </g>
  <g>
    <polygon style="fill: #ffffff" points="512,848.48 562.8,818 613.6,848.48 562.8,878.96 "/>
    <polygon style="fill: none; fill-opacity:0; stroke-width: 2; stroke: #000000" points="512,848.48 562.8,818 613.6,848.48 562.8,878.96 "/>
    <text font-size="12.7998" style="fill: #000000;text-anchor:start;font-family:monospace;font-style:normal;font-weight:normal" x="566.8" y="812">1:1</text>
    <text font-size="12.7998" style="fill: #000000;text-anchor:start;font-family:monospace;font-style:normal;font-weight:normal" x="566.8" y="900.96">1:1</text>
    <text font-size="12.7998" style="fill: #000000;text-anchor:middle;font-family:monospace;font-style:normal;font-weight:normal" x="562.8" y="852.48">Relación</text>
  </g>
  <line style="fill: none; fill-opacity:0; stroke-width: 2; stroke: #000000" x1="1020.45" y1="992" x2="1018.8" y2="885.96"/>
  <line style="fill: none; fill-opacity:0; stroke-width: 2; stroke: #000000" x1="1018.8" y1="825" x2="1018.65" y2="695.002"/>
  <polyline style="fill: none; fill-opacity:0; stroke-width: 2; stroke: #000000" points="941,1010 941,1009 562.8,1009 562.8,878.96 "/>
  <line style="fill: none; fill-opacity:0; stroke-width: 2; stroke: #000000" x1="562.8" y1="818" x2="561.8" y2="697"/>
  <polyline style="fill: none; fill-opacity:0; stroke-width: 2; stroke: #000000" points="1099.9,1010 1404,1010 1404,594.96 1402.8,594.96 "/>
  <polyline style="fill: none; fill-opacity:0; stroke-width: 2; stroke: #000000" points="1058.9,375 1403,375 1403,534 1402.8,534 "/>
  <g>
    <polygon style="fill: #ffffff" points="967,201.48 1017.8,171 1068.6,201.48 1017.8,231.96 "/>
    <polygon style="fill: none; fill-opacity:0; stroke-width: 2; stroke: #000000" points="967,201.48 1017.8,171 1068.6,201.48 1017.8,231.96 "/>
    <text font-size="12.7998" style="fill: #000000;text-anchor:start;font-family:monospace;font-style:normal;font-weight:normal" x="1021.8" y="165">1:N</text>
    <text font-size="12.7998" style="fill: #000000;text-anchor:start;font-family:monospace;font-style:normal;font-weight:normal" x="1021.8" y="253.96">1:1</text>
    <text font-size="12.7998" style="fill: #000000;text-anchor:middle;font-family:monospace;font-style:normal;font-weight:normal" x="1017.8" y="205.48">Relación</text>
  </g>
  <line style="fill: none; fill-opacity:0; stroke-width: 2; stroke: #000000" x1="1017.95" y1="357" x2="1017.8" y2="231.96"/>
  <line style="fill: none; fill-opacity:0; stroke-width: 2; stroke: #000000" x1="1017.8" y1="171" x2="1018.95" y2="95"/>
  <g>
    <ellipse style="fill: #ffae00" cx="469.65" cy="300" rx="54.65" ry="18"/>
    <ellipse style="fill: none; fill-opacity:0; stroke-width: 2; stroke: #000000" cx="469.65" cy="300" rx="54.65" ry="18"/>
    <text font-size="12.7998" style="fill: #000000;text-anchor:middle;font-family:monospace;font-style:normal;font-weight:normal" x="469.65" y="304">idTablero</text>
    <line style="fill: none; fill-opacity:0; stroke-width: 2; stroke: #000000" x1="435" y1="308" x2="504.3" y2="308"/>
  </g>
  <g>
    <ellipse style="fill: #ffae00" cx="394.35" cy="375" rx="62.35" ry="18"/>
    <ellipse style="fill: none; fill-opacity:0; stroke-width: 2; stroke: #000000" cx="394.35" cy="375" rx="62.35" ry="18"/>
    <text font-size="12.7998" style="fill: #000000;text-anchor:middle;font-family:monospace;font-style:normal;font-weight:normal" x="394.35" y="379">tipoTablero</text>
  </g>
  <g>
    <ellipse style="fill: #90ee90" cx="710.65" cy="627" rx="54.65" ry="18"/>
    <ellipse style="fill: none; fill-opacity:0; stroke-width: 2; stroke: #000000" cx="710.65" cy="627" rx="54.65" ry="18"/>
    <text font-size="12.7998" style="fill: #000000;text-anchor:middle;font-family:monospace;font-style:normal;font-weight:normal" x="710.65" y="631">idCasilla</text>
    <line style="fill: none; fill-opacity:0; stroke-width: 2; stroke: #000000" x1="676" y1="635" x2="745.3" y2="635"/>
  </g>
  <g>
    <ellipse style="fill: #90ee90" cx="703.35" cy="736" rx="62.35" ry="18"/>
    <ellipse style="fill: none; fill-opacity:0; stroke-width: 2; stroke: #000000" cx="703.35" cy="736" rx="62.35" ry="18"/>
    <text font-size="12.7998" style="fill: #000000;text-anchor:middle;font-family:monospace;font-style:normal;font-weight:normal" x="703.35" y="740">coloCasilla</text>
  </g>
  <g>
    <ellipse style="fill: #90ee90" cx="391.15" cy="732" rx="93.15" ry="18"/>
    <ellipse style="fill: none; fill-opacity:0; stroke-width: 2; stroke: #000000" cx="391.15" cy="732" rx="93.15" ry="18"/>
    <text font-size="12.7998" style="fill: #000000;text-anchor:middle;font-family:monospace;font-style:normal;font-weight:normal" x="391.15" y="736">precioCompraCasilla</text>
  </g>
  <g>
    <ellipse style="fill: #90ee90" cx="328.85" cy="661" rx="100.85" ry="18"/>
    <ellipse style="fill: none; fill-opacity:0; stroke-width: 2; stroke: #000000" cx="328.85" cy="661" rx="100.85" ry="18"/>
    <text font-size="12.7998" style="fill: #000000;text-anchor:middle;font-family:monospace;font-style:normal;font-weight:normal" x="328.85" y="665">precioAlquilerCasilla</text>
  </g>
  <g>
    <ellipse style="fill: #90ee90" cx="409.45" cy="597" rx="85.45" ry="18"/>
    <ellipse style="fill: none; fill-opacity:0; stroke-width: 2; stroke: #000000" cx="409.45" cy="597" rx="85.45" ry="18"/>
    <text font-size="12.7998" style="fill: #000000;text-anchor:middle;font-family:monospace;font-style:normal;font-weight:normal" x="409.45" y="601">precioCasaCasilla</text>
  </g>
  <g>
    <ellipse style="fill: #90ee90" cx="713.75" cy="795" rx="77.75" ry="18"/>
    <ellipse style="fill: none; fill-opacity:0; stroke-width: 2; stroke: #000000" cx="713.75" cy="795" rx="77.75" ry="18"/>
    <text font-size="12.7998" style="fill: #000000;text-anchor:middle;font-family:monospace;font-style:normal;font-weight:normal" x="713.75" y="799">posicionCasilla</text>
  </g>
  <g>
    <ellipse style="fill: #90ee90" cx="693.35" cy="567" rx="62.35" ry="18"/>
    <ellipse style="fill: none; fill-opacity:0; stroke-width: 2; stroke: #000000" cx="693.35" cy="567" rx="62.35" ry="18"/>
    <text font-size="12.7998" style="fill: #000000;text-anchor:middle;font-family:monospace;font-style:normal;font-weight:normal" x="693.35" y="571">tipoCasilla</text>
  </g>
  <g>
    <ellipse style="fill: #90ee90" cx="457.05" cy="795" rx="70.05" ry="18"/>
    <ellipse style="fill: none; fill-opacity:0; stroke-width: 2; stroke: #000000" cx="457.05" cy="795" rx="70.05" ry="18"/>
    <text font-size="12.7998" style="fill: #000000;text-anchor:middle;font-family:monospace;font-style:normal;font-weight:normal" x="457.05" y="799">nombreCasilla</text>
  </g>
  <g>
    <ellipse style="fill: #479aeb" cx="451.95" cy="151" rx="46.95" ry="18"/>
    <ellipse style="fill: none; fill-opacity:0; stroke-width: 2; stroke: #000000" cx="451.95" cy="151" rx="46.95" ry="18"/>
    <text font-size="12.7998" style="fill: #000000;text-anchor:middle;font-family:monospace;font-style:normal;font-weight:normal" x="451.95" y="155">idCarta</text>
    <line style="fill: none; fill-opacity:0; stroke-width: 2; stroke: #000000" x1="425" y1="159" x2="478.9" y2="159"/>
  </g>
  <g>
    <ellipse style="fill: #479aeb" cx="689.65" cy="155" rx="54.65" ry="18"/>
    <ellipse style="fill: none; fill-opacity:0; stroke-width: 2; stroke: #000000" cx="689.65" cy="155" rx="54.65" ry="18"/>
    <text font-size="12.7998" style="fill: #000000;text-anchor:middle;font-family:monospace;font-style:normal;font-weight:normal" x="689.65" y="159">tipoCarta</text>
  </g>
  <g>
    <ellipse style="fill: #479aeb" cx="434.35" cy="-27" rx="62.35" ry="18"/>
    <ellipse style="fill: none; fill-opacity:0; stroke-width: 2; stroke: #000000" cx="434.35" cy="-27" rx="62.35" ry="18"/>
    <text font-size="12.7998" style="fill: #000000;text-anchor:middle;font-family:monospace;font-style:normal;font-weight:normal" x="434.35" y="-23">accionCarta</text>
  </g>
  <g>
    <ellipse style="fill: #479aeb" cx="635.6" cy="-34" rx="81.6" ry="18"/>
    <ellipse style="fill: none; fill-opacity:0; stroke-width: 2; stroke: #000000" cx="635.6" cy="-34" rx="81.6" ry="18"/>
    <text font-size="12.7998" style="fill: #000000;text-anchor:middle;font-family:monospace;font-style:normal;font-weight:normal" x="635.6" y="-30">descripcionCarta</text>
  </g>
  <g>
    <ellipse style="fill: #e2a7b1" cx="929.65" cy="296" rx="54.65" ry="18"/>
    <ellipse style="fill: none; fill-opacity:0; stroke-width: 2; stroke: #000000" cx="929.65" cy="296" rx="54.65" ry="18"/>
    <text font-size="12.7998" style="fill: #000000;text-anchor:middle;font-family:monospace;font-style:normal;font-weight:normal" x="929.65" y="300">idPartida</text>
    <line style="fill: none; fill-opacity:0; stroke-width: 2; stroke: #000000" x1="895" y1="304" x2="964.3" y2="304"/>
  </g>
  <g>
    <ellipse style="fill: #e2a7b1" cx="1129.05" cy="307" rx="70.05" ry="18"/>
    <ellipse style="fill: none; fill-opacity:0; stroke-width: 2; stroke: #000000" cx="1129.05" cy="307" rx="70.05" ry="18"/>
    <text font-size="12.7998" style="fill: #000000;text-anchor:middle;font-family:monospace;font-style:normal;font-weight:normal" x="1129.05" y="311">estadoPartida</text>
  </g>
  <g>
    <ellipse style="fill: #ffff00" cx="921.65" cy="758" rx="54.65" ry="18"/>
    <ellipse style="fill: none; fill-opacity:0; stroke-width: 2; stroke: #000000" cx="921.65" cy="758" rx="54.65" ry="18"/>
    <text font-size="12.7998" style="fill: #000000;text-anchor:middle;font-family:monospace;font-style:normal;font-weight:normal" x="921.65" y="762">idJugador</text>
    <line style="fill: none; fill-opacity:0; stroke-width: 2; stroke: #000000" x1="887" y1="766" x2="956.3" y2="766"/>
  </g>
  <g>
    <ellipse style="fill: #ffff00" cx="880.05" cy="586" rx="70.05" ry="18"/>
    <ellipse style="fill: none; fill-opacity:0; stroke-width: 2; stroke: #000000" cx="880.05" cy="586" rx="70.05" ry="18"/>
    <text font-size="12.7998" style="fill: #000000;text-anchor:middle;font-family:monospace;font-style:normal;font-weight:normal" x="880.05" y="590">nombreJugador</text>
  </g>
  <g>
    <ellipse style="fill: #ffff00" cx="1150.05" cy="749" rx="70.05" ry="18"/>
    <ellipse style="fill: none; fill-opacity:0; stroke-width: 2; stroke: #000000" cx="1150.05" cy="749" rx="70.05" ry="18"/>
    <text font-size="12.7998" style="fill: #000000;text-anchor:middle;font-family:monospace;font-style:normal;font-weight:normal" x="1150.05" y="753">dineroJugador</text>
  </g>
  <g>
    <ellipse style="fill: #ffff00" cx="1168.05" cy="603" rx="70.05" ry="18"/>
    <ellipse style="fill: none; fill-opacity:0; stroke-width: 2; stroke: #000000" cx="1168.05" cy="603" rx="70.05" ry="18"/>
    <text font-size="12.7998" style="fill: #000000;text-anchor:middle;font-family:monospace;font-style:normal;font-weight:normal" x="1168.05" y="607">carcelJugador</text>
  </g>
  <g>
    <ellipse style="fill: #e42424" cx="1196.45" cy="917" rx="85.45" ry="18"/>
    <ellipse style="fill: none; fill-opacity:0; stroke-width: 2; stroke: #000000" cx="1196.45" cy="917" rx="85.45" ry="18"/>
    <text font-size="12.7998" style="fill: #000000;text-anchor:middle;font-family:monospace;font-style:normal;font-weight:normal" x="1196.45" y="921">idEstadoPropiedad</text>
    <line style="fill: none; fill-opacity:0; stroke-width: 2; stroke: #000000" x1="1131" y1="925" x2="1261.9" y2="925"/>
  </g>
  <g>
    <ellipse style="fill: #e42424" cx="865" cy="914" rx="97" ry="18"/>
    <ellipse style="fill: none; fill-opacity:0; stroke-width: 2; stroke: #000000" cx="865" cy="914" rx="97" ry="18"/>
    <text font-size="12.7998" style="fill: #000000;text-anchor:middle;font-family:monospace;font-style:normal;font-weight:normal" x="865" y="918">casasEstadoPropiedad</text>
  </g>
  <g>
    <ellipse style="fill: #e42424" cx="1017.25" cy="1103" rx="116.25" ry="18"/>
    <ellipse style="fill: none; fill-opacity:0; stroke-width: 2; stroke: #000000" cx="1017.25" cy="1103" rx="116.25" ry="18"/>
    <text font-size="12.7998" style="fill: #000000;text-anchor:middle;font-family:monospace;font-style:normal;font-weight:normal" x="1017.25" y="1107">hipotecadaEstadoPropiedad</text>
  </g>
  <g>
    <ellipse style="fill: #c06c3c" cx="1171.65" cy="7" rx="54.65" ry="18"/>
    <ellipse style="fill: none; fill-opacity:0; stroke-width: 2; stroke: #000000" cx="1171.65" cy="7" rx="54.65" ry="18"/>
    <text font-size="12.7998" style="fill: #000000;text-anchor:middle;font-family:monospace;font-style:normal;font-weight:normal" x="1171.65" y="11">idRanking</text>
    <line style="fill: none; fill-opacity:0; stroke-width: 2; stroke: #000000" x1="1137" y1="15" x2="1206.3" y2="15"/>
  </g>
  <g>
    <ellipse style="fill: #c06c3c" cx="865.9" cy="135" rx="73.9" ry="18"/>
    <ellipse style="fill: none; fill-opacity:0; stroke-width: 2; stroke: #000000" cx="865.9" cy="135" rx="73.9" ry="18"/>
    <text font-size="12.7998" style="fill: #000000;text-anchor:middle;font-family:monospace;font-style:normal;font-weight:normal" x="865.9" y="139">jugadorRanking</text>
  </g>
  <g>
    <ellipse style="fill: #c06c3c" cx="1207.3" cy="121" rx="89.3" ry="18"/>
    <ellipse style="fill: none; fill-opacity:0; stroke-width: 2; stroke: #000000" cx="1207.3" cy="121" rx="89.3" ry="18"/>
    <text font-size="12.7998" style="fill: #000000;text-anchor:middle;font-family:monospace;font-style:normal;font-weight:normal" x="1207.3" y="125">dineroFinalRanking</text>
  </g>
  <g>
    <ellipse style="fill: #c06c3c" cx="865.55" cy="-23" rx="108.55" ry="18"/>
    <ellipse style="fill: none; fill-opacity:0; stroke-width: 2; stroke: #000000" cx="865.55" cy="-23" rx="108.55" ry="18"/>
    <text font-size="12.7998" style="fill: #000000;text-anchor:middle;font-family:monospace;font-style:normal;font-weight:normal" x="865.55" y="-19">propiedadesFinalRanking</text>
  </g>
  <g>
    <ellipse style="fill: #e2a7b1" cx="911.2" cy="445" rx="66.2" ry="18"/>
    <ellipse style="fill: none; fill-opacity:0; stroke-width: 2; stroke: #000000" cx="911.2" cy="445" rx="66.2" ry="18"/>
    <text font-size="12.7998" style="fill: #000000;text-anchor:middle;font-family:monospace;font-style:normal;font-weight:normal" x="911.2" y="449">turnoPartida</text>
  </g>
  <line style="fill: none; fill-opacity:0; stroke-width: 2; stroke: #000000" x1="901.972" y1="603.791" x2="970" y2="659"/>
  <line style="fill: none; fill-opacity:0; stroke-width: 2; stroke: #000000" x1="1137.78" y1="619.823" x2="1067.3" y2="659"/>
  <line style="fill: none; fill-opacity:0; stroke-width: 2; stroke: #000000" x1="918" y1="738" x2="970" y2="695.002"/>
  <line style="fill: none; fill-opacity:0; stroke-width: 2; stroke: #000000" x1="1128" y1="731" x2="1067.3" y2="695.002"/>
  <line style="fill: none; fill-opacity:0; stroke-width: 2; stroke: #000000" x1="882.887" y1="932.357" x2="941" y2="992"/>
  <line style="fill: none; fill-opacity:0; stroke-width: 2; stroke: #000000" x1="1196.45" y1="935" x2="1099.9" y2="992"/>
  <line style="fill: none; fill-opacity:0; stroke-width: 2; stroke: #000000" x1="1017.25" y1="1085" x2="1020.45" y2="1028"/>
  <line style="fill: none; fill-opacity:0; stroke-width: 2; stroke: #000000" x1="911.2" y1="427" x2="977" y2="393"/>
  <line style="fill: none; fill-opacity:0; stroke-width: 2; stroke: #000000" x1="943.805" y1="314.236" x2="977" y2="357"/>
  <line style="fill: none; fill-opacity:0; stroke-width: 2; stroke: #000000" x1="1129.05" y1="325" x2="1058.9" y2="357"/>
  <line style="fill: none; fill-opacity:0; stroke-width: 2; stroke: #000000" x1="469.65" y1="318" x2="516" y2="356"/>
  <line style="fill: none; fill-opacity:0; stroke-width: 2; stroke: #000000" x1="456.7" y1="375" x2="516" y2="374"/>
  <line style="fill: none; fill-opacity:0; stroke-width: 2; stroke: #000000" x1="649.262" y1="579.728" x2="578.37" y2="660.193"/>
  <line style="fill: none; fill-opacity:0; stroke-width: 2; stroke: #000000" x1="672.238" y1="640.419" x2="607.598" y2="663.001"/>
  <line style="fill: none; fill-opacity:0; stroke-width: 2; stroke: #000000" x1="659.262" y1="723.272" x2="603.607" y2="697.991"/>
  <line style="fill: none; fill-opacity:0; stroke-width: 2; stroke: #000000" x1="658.772" y1="782.272" x2="579.627" y2="697.985"/>
  <line style="fill: none; fill-opacity:0; stroke-width: 2; stroke: #000000" x1="506.583" y1="782.272" x2="551.649" y2="697.985"/>
  <line style="fill: none; fill-opacity:0; stroke-width: 2; stroke: #000000" x1="457.017" y1="719.272" x2="515.996" y2="696.604"/>
  <line style="fill: none; fill-opacity:0; stroke-width: 2; stroke: #000000" x1="422.377" y1="668.227" x2="516.003" y2="675.461"/>
  <line style="fill: none; fill-opacity:0; stroke-width: 2; stroke: #000000" x1="469.872" y1="609.728" x2="536.619" y2="660.025"/>
  <line style="fill: none; fill-opacity:0; stroke-width: 2; stroke: #000000" x1="434.35" y1="-9" x2="532.331" y2="58.009"/>
  <line style="fill: none; fill-opacity:0; stroke-width: 2; stroke: #000000" x1="635.6" y1="-16" x2="575.519" y2="58.0072"/>
  <line style="fill: none; fill-opacity:0; stroke-width: 2; stroke: #000000" x1="664.089" y1="138.411" x2="597.2" y2="95"/>
  <line style="fill: none; fill-opacity:0; stroke-width: 2; stroke: #000000" x1="451.95" y1="133" x2="523" y2="95"/>
  <line style="fill: none; fill-opacity:0; stroke-width: 2; stroke: #000000" x1="865.55" y1="-5" x2="978" y2="59"/>
  <line style="fill: none; fill-opacity:0; stroke-width: 2; stroke: #000000" x1="918.155" y1="122.272" x2="977.005" y2="95.8394"/>
  <line style="fill: none; fill-opacity:0; stroke-width: 2; stroke: #000000" x1="1139.14" y1="21.9023" x2="1060.26" y2="58.0645"/>
  <line style="fill: none; fill-opacity:0; stroke-width: 2; stroke: #000000" x1="1118" y1="121" x2="1060.89" y2="95.6323"/>
</svg>
